<?xml version="1.0" encoding="utf-8"?>
<!-- Generator: Adobe Illustrator 16.0.0, SVG Export Plug-In . SVG Version: 6.00 Build 0)  -->
<!DOCTYPE svg PUBLIC "-//W3C//DTD SVG 1.1//EN" "http://www.w3.org/Graphics/SVG/1.1/DTD/svg11.dtd">
<svg version="1.1" id="Layer_1" xmlns="http://www.w3.org/2000/svg" xmlns:xlink="http://www.w3.org/1999/xlink" x="0px" y="0px"
	 width="595.279px" height="115px" viewBox="0 362.445 595.279 115" enable-background="new 0 362.445 595.279 115"
	 xml:space="preserve">
<g>
	<g>
		<g>
			<path fill="#FFFFFF" d="M131.836,429.436h-13.957l-14.619-27.978c-0.152-0.434-0.313-0.886-0.483-1.356
				c-0.172-0.472-0.344-0.713-0.521-0.713c0,0.345,0.014,0.7,0.038,1.058c0.439,1.896,0.662,2.858,0.662,2.891v26.094h-8.539
				v-37.759h13.958l14.581,27.928c0.165,0.466,0.331,0.924,0.49,1.383c0.165,0.458,0.344,0.688,0.528,0.688
				c-0.025-0.344-0.038-0.7-0.038-1.058c-0.218-0.948-0.42-1.923-0.624-2.916v-26.023h8.52v37.765h0.005V429.436z"/>
			<path fill="#FFFFFF" d="M176.542,405.259h-8.539c0-2.222-0.4-3.515-1.203-3.891c-0.803-0.369-3.571-0.554-8.303-0.554
				c-4.719,0-7.481,0.406-8.284,1.217c-0.803,0.809-1.204,3.647-1.204,8.524c0,4.82,0.39,7.636,1.173,8.438
				c0.782,0.803,3.565,1.204,8.348,1.204c4.757,0,7.526-0.159,8.304-0.479c0.776-0.317,1.165-1.483,1.165-3.503h-10.545v-8.479
				h19.083c0,8.231-0.223,13.44-0.662,15.632c-0.617,3.063-2.171,4.985-4.661,5.762c-1.826,0.567-6.062,0.854-12.684,0.854
				c-8.685,0-13.868-0.948-15.543-2.84c-1.681-1.897-2.521-7.438-2.521-16.639c0-9.214,0.815-14.734,2.445-16.562
				c1.732-1.949,6.936-2.917,15.619-2.917c8.329,0,13.359,0.656,15.091,1.961C175.568,394.435,176.542,398.522,176.542,405.259z"/>
			<path fill="#FFFFFF" d="M219.146,399.732v14.904c0,6.839-1.096,11.138-3.291,12.896c-1.993,1.637-6.781,2.451-14.354,2.451
				c-7.545,0-12.32-0.814-14.313-2.451c-2.197-1.789-3.292-6.087-3.292-12.896V391.62h8.538v23.018c0,2.293,0.459,3.757,1.382,4.395
				c1.107,0.776,3.674,1.166,7.686,1.166c3.948,0,6.456-0.363,7.521-1.083c1.063-0.727,1.592-2.216,1.592-4.471V391.62h3.731
				l0.075-0.102l3.886-5.399l5.36,7.335l-3.77,5.246L219.146,399.732z"/>
			<path fill="#FFFFFF" d="M261.445,398.669c0.49,2.84,0.739,6.787,0.739,11.83c0,9.194-0.815,14.702-2.445,16.511
				c-1.758,1.931-7.049,2.892-15.887,2.892c-6.463,0-10.704-0.313-12.724-0.931c-2.533-0.809-4.139-2.571-4.807-5.297
				c-0.516-2.082-0.777-6.476-0.777-13.175c0-9.213,0.804-14.715,2.407-16.51c1.751-1.98,7.055-2.974,15.905-2.974
				c5.101,0,9.01,0.325,11.742,0.98l0.355-0.49l3.884-5.399l5.361,7.335L261.445,398.669z M234.084,410.499
				c0,4.82,0.407,7.635,1.224,8.438c0.813,0.803,3.66,1.203,8.551,1.203c4.909,0,7.774-0.4,8.59-1.203s1.223-3.609,1.223-8.438
				c0-4.871-0.406-7.704-1.223-8.5c-0.814-0.79-3.661-1.19-8.552-1.19c-4.909,0-7.774,0.396-8.589,1.19
				C234.491,402.795,234.084,405.628,234.084,410.499z M240.598,375.135l9.602,9.354l-1.553,4.03l-11.1-5.164L240.598,375.135z"/>
			<path fill="#FFFFFF" d="M267.411,429.436v-37.765h8.538v37.771h-8.538V429.436z"/>
			<path fill="#FFFFFF" d="M328.086,410.557v1.108c0,1.655-0.031,3.024-0.103,4.119c-0.07,1.096-0.204,2.114-0.407,3.063l4.223,3.33
				l-3.33,7.96l-3.331-2.713c-1.706,1.445-4.005,2.254-6.908,2.426c-1.159,0.083-4.146,0.128-8.959,0.128
				c-8.735,0-14.046-0.975-15.932-2.917c-1.885-1.947-2.834-7.448-2.834-16.51c0-9.093,0.854-14.582,2.555-16.454
				c1.864-2.012,7.271-3.025,16.205-3.025c9.021,0,14.439,0.975,16.243,2.917C327.226,395.823,328.086,401.343,328.086,410.557z
				 M309.302,420.19h1.095h0.892c2.044,0,3.438-0.114,4.185-0.338l-7.59-5.915l3.481-8.425l8.184,6.947v-1.91
				c0-4.84-0.428-7.667-1.28-8.476c-0.854-0.81-3.854-1.216-9.003-1.216c-5.14,0-8.125,0.395-8.967,1.189
				c-0.84,0.79-1.261,3.623-1.261,8.501c0,4.788,0.427,7.59,1.28,8.411C301.171,419.781,304.163,420.19,309.302,420.19z"/>
			<path fill="#FFFFFF" d="M371.957,391.62v23.018c0,6.839-1.096,11.138-3.292,12.896c-1.992,1.637-6.78,2.451-14.353,2.451
				c-7.545,0-12.321-0.814-14.313-2.451c-2.196-1.789-3.291-6.087-3.291-12.896V391.62h8.537v23.018
				c0,2.293,0.459,3.757,1.383,4.395c1.107,0.776,3.674,1.166,7.686,1.166c3.948,0,6.457-0.363,7.52-1.083
				c1.063-0.727,1.593-2.216,1.593-4.471V391.62H371.957z"/>
			<path fill="#FFFFFF" d="M389.601,391.62h14.657l13.729,37.771h-9.959l-2.629-6.304h-16.906l-2.647,6.304h-9.959L389.601,391.62z
				 M397.593,400.114h-1.324l-4.604,13.174h10.507L397.593,400.114z"/>
			<path fill="#FFFFFF" d="M461.138,429.436h-13.957l-14.619-27.978c-0.153-0.434-0.313-0.886-0.484-1.356
				c-0.172-0.472-0.344-0.713-0.521-0.713c0,0.345,0.013,0.7,0.038,1.058c0.438,1.896,0.662,2.858,0.662,2.891v26.094h-8.539
				v-37.759h13.957l14.582,27.928c0.165,0.466,0.331,0.924,0.489,1.383c0.165,0.458,0.345,0.688,0.528,0.688
				c-0.024-0.344-0.038-0.7-0.038-1.058c-0.217-0.948-0.42-1.923-0.624-2.916v-26.023h8.521v37.765h0.005V429.436z"/>
			<path fill="#FFFFFF" d="M493.886,420.859c4.101,0,6.476-0.091,7.131-0.263c0.649-0.172,0.975-0.858,0.975-2.068
				c0-1.445-0.452-2.355-1.361-2.726c-0.911-0.37-3.158-0.555-6.743-0.555c-7.119,0-11.607-0.706-13.475-2.12
				c-1.858-1.413-2.795-4.896-2.795-10.461c0-5.151,1.217-8.45,3.654-9.896c1.854-1.102,5.992-1.655,12.404-1.655
				c5.718,0,9.341,0.216,10.869,0.643c3.585,0.98,5.38,5.138,5.38,12.48h-8.521c0-2.013-0.324-3.185-0.968-3.516
				c-0.643-0.324-2.885-0.489-6.724-0.489c-3.854,0-6.074,0.096-6.667,0.286s-0.893,0.903-0.893,2.146
				c0,1.313,0.503,2.158,1.517,2.547c1.013,0.388,3.082,0.579,6.208,0.579c7.029,0,11.557,0.758,13.588,2.273
				c2.024,1.515,3.038,5.005,3.038,10.461c0,5.05-1.135,8.277-3.407,9.686c-1.967,1.203-6.386,1.809-13.257,1.809
				c-5.305,0-8.742-0.165-10.321-0.49c-2.438-0.496-4.094-1.655-4.973-3.464c-0.88-1.809-1.318-4.96-1.318-9.455h8.539
				c0,2.12,0.337,3.354,1.006,3.706C487.454,420.688,489.817,420.859,493.886,420.859z"/>
			<path fill="#FFFFFF" d="M528.932,391.62h14.658l13.728,37.771h-9.958l-2.63-6.304h-16.905l-2.648,6.304h-9.958L528.932,391.62z
				 M542.583,383.349l-11.098,5.164l-1.554-4.03l9.602-9.354L542.583,383.349z M536.924,400.114h-1.324l-4.604,13.174h10.506
				L536.924,400.114z"/>
			<path fill="#FFFFFF" d="M562.278,401.355v-9.792h33.002v9.792h-12.212v28.028h-8.539v-28.028H562.278z"/>
		</g>
	</g>
	<g>
		<path fill="#FFFFFF" d="M152.295,447.194h7.801c1.788,0,3.146,0.141,4.074,0.421c1.248,0.375,2.317,1.037,3.203,1.985
			c0.885,0.948,1.555,2.096,1.999,3.444c0.445,1.352,0.669,3.012,0.669,4.999c0,1.744-0.249,3.312-0.745,4.712
			c-0.497,1.4-1.223,2.565-2.189,3.502c-0.738,0.7-1.738,1.254-2.986,1.661c-0.941,0.3-2.21,0.446-3.795,0.446h-8.029v-9.239h-2.196
			v-2.687h2.196L152.295,447.194L152.295,447.194z M156.555,450.779v5.661h4.532v2.687h-4.532v5.674h3.202
			c1.413,0,2.433-0.115,3.063-0.344c0.827-0.287,1.458-0.815,1.891-1.586c0.605-1.089,0.911-2.751,0.911-4.979
			c0-1.585-0.128-2.813-0.383-3.674c-0.254-0.858-0.63-1.56-1.127-2.089c-0.496-0.528-1.146-0.896-1.941-1.114
			c-0.617-0.151-1.847-0.229-3.681-0.229h-1.936V450.779L156.555,450.779z"/>
		<path fill="#FFFFFF" d="M175.74,457.911c0-2.159,0.325-3.967,0.968-5.433c0.484-1.075,1.141-2.044,1.976-2.902
			c0.834-0.859,1.744-1.49,2.736-1.904c1.318-0.561,2.841-0.84,4.565-0.84c3.12,0,5.616,0.968,7.488,2.903
			c1.872,1.935,2.808,4.622,2.808,8.072c0,3.421-0.93,6.095-2.788,8.023c-1.858,1.93-4.343,2.897-7.45,2.897
			c-3.146,0-5.646-0.963-7.507-2.88C176.669,463.922,175.74,461.279,175.74,457.911z M180.146,457.765
			c0,2.395,0.555,4.216,1.662,5.45c1.107,1.235,2.516,1.854,4.215,1.854c1.707,0,3.102-0.61,4.196-1.84
			c1.096-1.229,1.637-3.069,1.637-5.521c0-2.426-0.535-4.234-1.6-5.432c-1.063-1.196-2.477-1.789-4.239-1.789
			c-1.764,0-3.185,0.604-4.261,1.813C180.681,453.511,180.146,455.332,180.146,457.765z M185.947,445.405l-1.585,1.068h-2.847
			l3.146-1.878h2.572l3.146,1.878h-2.846L185.947,445.405z M183.814,474.154v-4.058h4.056v4.058H183.814z"/>
		<path fill="#FFFFFF" d="M207.328,468.366v-17.587h-6.278v-3.578h16.822v3.578h-6.265v17.587H207.328z"/>
		<path fill="#FFFFFF" d="M234.759,468.366v-21.165h6.857c2.598,0,4.292,0.107,5.081,0.317c1.21,0.318,2.229,1.007,3.044,2.069
			c0.821,1.063,1.229,2.438,1.229,4.119c0,1.3-0.235,2.395-0.706,3.279c-0.473,0.886-1.07,1.579-1.797,2.089
			c-0.726,0.503-1.465,0.841-2.216,1.006c-1.019,0.204-2.496,0.306-4.432,0.306h-2.789v7.984h-4.272V468.366L234.759,468.366z
			 M239.031,450.779v6.005h2.337c1.688,0,2.808-0.108,3.381-0.331c0.573-0.225,1.014-0.567,1.337-1.038
			c0.325-0.472,0.484-1.019,0.484-1.643c0-0.771-0.229-1.407-0.682-1.904c-0.452-0.503-1.024-0.815-1.72-0.937
			c-0.51-0.096-1.535-0.146-3.074-0.146h-2.063V450.779z"/>
		<path fill="#FFFFFF" d="M257.452,468.366v-21.165h4.272v8.328h8.373v-8.328h4.271v21.165h-4.271v-9.258h-8.373v9.258H257.452z"/>
		<path fill="#FFFFFF" d="M300.846,468.366h-4.648l-1.846-4.809h-8.463l-1.744,4.809h-4.534l8.246-21.165h4.521L300.846,468.366z
			 M292.976,459.986l-2.916-7.857l-2.859,7.857H292.976z M287.602,445.984l1.993-4.316h4.546l-3.974,4.316H287.602z"/>
		<path fill="#FFFFFF" d="M322.006,468.366v-17.587h-6.278v-3.578h16.822v3.578h-6.267v17.587H322.006z"/>
		<path fill="#FFFFFF" d="M338.274,468.366v-21.165h4.272v8.328h8.373v-8.328h4.271v21.165h-4.271v-9.258h-8.373v9.258H338.274z"/>
		<path fill="#FFFFFF" d="M361.705,457.911c0-2.159,0.325-3.967,0.969-5.433c0.483-1.075,1.14-2.044,1.974-2.902
			c0.834-0.859,1.745-1.49,2.738-1.904c1.317-0.561,2.84-0.84,4.564-0.84c3.12,0,5.616,0.968,7.488,2.903
			c1.872,1.935,2.808,4.622,2.808,8.072c0,3.421-0.93,6.095-2.789,8.023c-1.858,1.929-4.342,2.897-7.448,2.897
			c-3.146,0-5.648-0.963-7.508-2.88C362.635,463.922,361.705,461.279,361.705,457.911z M366.112,457.765
			c0,2.395,0.554,4.216,1.662,5.45c1.107,1.235,2.515,1.854,4.215,1.854c1.707,0,3.102-0.61,4.196-1.84s1.637-3.069,1.637-5.521
			c0-2.426-0.535-4.234-1.599-5.432c-1.063-1.196-2.478-1.789-4.24-1.789s-3.184,0.604-4.26,1.813
			C366.653,453.511,366.112,455.332,366.112,457.765z M366.921,445.984l3.03-4.261h3.757l2.986,4.261h-3.267l-1.675-2.151
			l-1.562,2.151H366.921z"/>
		<path fill="#FFFFFF" d="M388.575,468.366v-21.165h4.158l8.666,14.136v-14.136h3.974v21.165h-4.285l-8.532-13.806v13.806H388.575z"
			/>
		<path fill="#FFFFFF" d="M422.692,460.579v-3.566h9.214v8.432c-0.896,0.865-2.189,1.63-3.891,2.286
			c-1.7,0.661-3.419,0.986-5.163,0.986c-2.217,0-4.146-0.465-5.788-1.395c-1.644-0.931-2.885-2.255-3.713-3.986
			c-0.827-1.726-1.241-3.61-1.241-5.642c0-2.203,0.465-4.164,1.388-5.877c0.925-1.714,2.28-3.024,4.058-3.941
			c1.354-0.7,3.05-1.057,5.067-1.057c2.631,0,4.681,0.554,6.157,1.654c1.478,1.103,2.426,2.623,2.854,4.571l-4.247,0.796
			c-0.3-1.037-0.859-1.858-1.683-2.464c-0.82-0.604-1.853-0.904-3.081-0.904c-1.865,0-3.354,0.594-4.457,1.776
			c-1.102,1.185-1.655,2.942-1.655,5.272c0,2.515,0.561,4.398,1.675,5.653c1.114,1.254,2.579,1.885,4.388,1.885
			c0.897,0,1.795-0.179,2.693-0.527c0.896-0.352,1.674-0.777,2.316-1.28v-2.687h-4.891V460.579L422.692,460.579z"/>
		<path fill="#FFFFFF" d="M454.745,468.366v-17.587h-6.277v-3.578h16.822v3.578h-6.266v17.587H454.745z"/>
		<path fill="#FFFFFF" d="M470.867,468.366v-21.165h4.272v21.165H470.867z"/>
		<path fill="#FFFFFF" d="M482.215,468.366v-21.165h4.157l8.666,14.136v-14.136h3.975v21.165h-4.285l-8.533-13.806v13.806H482.215z"
			/>
	</g>
	<polygon fill="#EE7224" points="65.259,376.58 54.594,365.915 43.929,376.58 49.92,376.58 49.92,475.976 59.274,475.976 
		59.274,376.58 	"/>
	<polygon fill="#EE7224" points="48.628,408.984 37.962,398.318 27.297,408.984 33.282,408.984 33.282,475.976 42.643,475.976 
		42.643,408.984 	"/>
	<polygon fill="#EE7224" points="32.34,427.118 21.675,416.453 11.009,427.118 17.001,427.118 17.001,475.976 26.355,475.976 
		26.355,427.118 	"/>
	<g>
		<g>
			<polygon fill="#FFFFFF" points="78.872,385.291 69.557,385.291 63.598,385.291 63.598,394.651 69.557,394.651 69.557,455.491 
				63.598,455.491 63.598,464.852 69.557,464.852 78.872,464.852 78.917,464.852 78.917,385.291 			"/>
			<polygon fill="#FFFFFF" points="0,385.291 0,394.651 0,455.491 0,464.852 9.36,464.852 13.843,464.852 13.843,455.491 
				9.36,455.491 9.36,394.651 46.953,394.651 46.953,385.291 9.36,385.291 			"/>
		</g>
	</g>
</g>
</svg>
