<?xml version="1.0" encoding="utf-8"?>
<!-- Generator: Adobe Illustrator 23.0.0, SVG Export Plug-In . SVG Version: 6.00 Build 0)  -->
<svg version="1.1" id="Layer_1" xmlns="http://www.w3.org/2000/svg" xmlns:xlink="http://www.w3.org/1999/xlink" x="0px" y="0px"
	 viewBox="0 0 934.89 172.85" style="enable-background:new 0 0 934.89 172.85;" xml:space="preserve">
<style type="text/css">
	.st0{fill:#3B1B70;}
	.st1{fill:#606060;}
	.st2{fill:#EE7224;}
</style>
<g>
	<g>
		<g>
			<path class="st0" d="M207.05,99.76h-21.92l-22.96-43.94c-0.24-0.68-0.49-1.39-0.76-2.13c-0.27-0.74-0.54-1.12-0.82-1.12
				c0,0.54,0.02,1.1,0.06,1.66c0.69,2.98,1.04,4.49,1.04,4.54v40.98h-13.41V40.45h21.92l22.9,43.86c0.26,0.73,0.52,1.45,0.77,2.17
				c0.26,0.72,0.54,1.08,0.83,1.08c-0.04-0.54-0.06-1.1-0.06-1.66c-0.34-1.49-0.66-3.02-0.98-4.58V40.45h13.38V99.76z"/>
			<path class="st0" d="M277.26,61.79h-13.41c0-3.49-0.63-5.52-1.89-6.11c-1.26-0.58-5.61-0.87-13.04-0.87
				c-7.41,0-11.75,0.64-13.01,1.91c-1.26,1.27-1.89,5.73-1.89,13.39c0,7.57,0.61,11.99,1.84,13.25c1.23,1.26,5.6,1.89,13.11,1.89
				c7.47,0,11.82-0.25,13.04-0.75c1.22-0.5,1.83-2.33,1.83-5.5h-16.56V65.68h29.97c0,12.93-0.35,21.11-1.04,24.55
				c-0.97,4.81-3.41,7.83-7.32,9.05c-2.87,0.89-9.52,1.34-19.92,1.34c-13.64,0-21.78-1.49-24.41-4.46
				c-2.64-2.98-3.96-11.68-3.96-26.13c0-14.47,1.28-23.14,3.84-26.01c2.72-3.06,10.89-4.58,24.53-4.58c13.08,0,20.98,1.03,23.7,3.08
				C275.73,44.79,277.26,51.21,277.26,61.79z"/>
			<path class="st0" d="M344.17,53.11v23.41c0,10.74-1.72,17.49-5.17,20.25c-3.13,2.57-10.65,3.85-22.54,3.85
				c-11.85,0-19.35-1.28-22.48-3.85c-3.45-2.81-5.17-9.56-5.17-20.25V40.37h13.41v36.15c0,3.6,0.72,5.9,2.17,6.9
				c1.74,1.22,5.77,1.83,12.07,1.83c6.2,0,10.14-0.57,11.81-1.7c1.67-1.14,2.5-3.48,2.5-7.02V40.37h5.86l0.12-0.16l6.1-8.48
				l8.42,11.52l-5.92,8.24L344.17,53.11z"/>
			<path class="st0" d="M410.6,51.44c0.77,4.46,1.16,10.66,1.16,18.58c0,14.44-1.28,23.09-3.84,25.93
				c-2.76,3.03-11.07,4.54-24.95,4.54c-10.15,0-16.81-0.49-19.98-1.46c-3.98-1.27-6.5-4.04-7.55-8.32
				c-0.81-3.27-1.22-10.17-1.22-20.69c0-14.47,1.26-23.11,3.78-25.93c2.75-3.11,11.08-4.67,24.98-4.67c8.01,0,14.15,0.51,18.44,1.54
				l0.56-0.77l6.1-8.48l8.42,11.52L410.6,51.44z M367.63,70.02c0,7.57,0.64,11.99,1.92,13.25c1.28,1.26,5.75,1.89,13.43,1.89
				c7.71,0,12.21-0.63,13.49-1.89c1.28-1.26,1.92-5.67,1.92-13.25c0-7.65-0.64-12.1-1.92-13.35c-1.28-1.24-5.75-1.87-13.43-1.87
				c-7.71,0-12.21,0.62-13.49,1.87C368.27,57.92,367.63,62.37,367.63,70.02z M377.86,14.48l15.08,14.69l-2.44,6.33l-17.43-8.11
				L377.86,14.48z"/>
			<path class="st0" d="M419.97,99.76V40.45h13.41v59.32H419.97z"/>
			<path class="st0" d="M515.26,70.11v1.74c0,2.6-0.05,4.75-0.16,6.47c-0.11,1.72-0.32,3.32-0.64,4.81l6.63,5.23l-5.23,12.5
				l-5.23-4.26c-2.68,2.27-6.29,3.54-10.85,3.81c-1.82,0.13-6.51,0.2-14.07,0.2c-13.72,0-22.06-1.53-25.02-4.58
				c-2.96-3.06-4.45-11.7-4.45-25.93c0-14.28,1.34-22.9,4.01-25.84c2.93-3.16,11.42-4.75,25.45-4.75c14.17,0,22.68,1.53,25.51,4.58
				C513.91,46.97,515.26,55.64,515.26,70.11z M485.76,85.24h1.72h1.4c3.21,0,5.4-0.18,6.57-0.53l-11.92-9.29L489,62.19l12.85,10.91
				v-3c0-7.6-0.67-12.04-2.01-13.31c-1.34-1.27-6.05-1.91-14.14-1.91c-8.07,0-12.76,0.62-14.08,1.87
				c-1.32,1.24-1.98,5.69-1.98,13.35c0,7.52,0.67,11.92,2.01,13.21C472.99,84.6,477.69,85.24,485.76,85.24z"/>
			<path class="st0" d="M584.16,40.37v36.15c0,10.74-1.72,17.49-5.17,20.25c-3.13,2.57-10.65,3.85-22.54,3.85
				c-11.85,0-19.35-1.28-22.48-3.85c-3.45-2.81-5.17-9.56-5.17-20.25V40.37h13.41v36.15c0,3.6,0.72,5.9,2.17,6.9
				c1.74,1.22,5.77,1.83,12.07,1.83c6.2,0,10.14-0.57,11.81-1.7c1.67-1.14,2.5-3.48,2.5-7.02V40.37H584.16z"/>
			<path class="st0" d="M611.87,40.37h23.02l21.56,59.32h-15.64l-4.13-9.9h-26.55l-4.16,9.9h-15.64L611.87,40.37z M624.42,53.71
				h-2.08l-7.23,20.69h16.5L624.42,53.71z"/>
			<path class="st0" d="M724.22,99.76H702.3l-22.96-43.94c-0.24-0.68-0.49-1.39-0.76-2.13c-0.27-0.74-0.54-1.12-0.82-1.12
				c0,0.54,0.02,1.1,0.06,1.66c0.69,2.98,1.04,4.49,1.04,4.54v40.98h-13.41V40.45h21.92l22.9,43.86c0.26,0.73,0.52,1.45,0.77,2.17
				c0.26,0.72,0.54,1.08,0.83,1.08c-0.04-0.54-0.06-1.1-0.06-1.66c-0.34-1.49-0.66-3.02-0.98-4.58V40.45h13.38V99.76z"/>
			<path class="st0" d="M775.65,86.29c6.44,0,10.17-0.14,11.2-0.41c1.02-0.27,1.53-1.35,1.53-3.25c0-2.27-0.71-3.7-2.14-4.28
				s-4.96-0.87-10.59-0.87c-11.18,0-18.23-1.11-21.16-3.33c-2.92-2.22-4.39-7.69-4.39-16.43c0-8.09,1.91-13.27,5.74-15.54
				c2.91-1.73,9.41-2.6,19.48-2.6c8.98,0,14.67,0.34,17.07,1.01c5.63,1.54,8.45,8.07,8.45,19.6h-13.38c0-3.16-0.51-5-1.52-5.52
				c-1.01-0.51-4.53-0.77-10.56-0.77c-6.05,0-9.54,0.15-10.47,0.45c-0.93,0.3-1.4,1.42-1.4,3.37c0,2.06,0.79,3.39,2.38,4
				c1.59,0.61,4.84,0.91,9.75,0.91c11.04,0,18.15,1.19,21.34,3.57c3.18,2.38,4.77,7.86,4.77,16.43c0,7.93-1.78,13-5.35,15.21
				c-3.09,1.89-10.03,2.84-20.82,2.84c-8.33,0-13.73-0.26-16.21-0.77c-3.83-0.78-6.43-2.6-7.81-5.44
				c-1.38-2.84-2.07-7.79-2.07-14.85h13.41c0,3.33,0.53,5.27,1.58,5.82C765.55,86.02,769.26,86.29,775.65,86.29z"/>
			<path class="st0" d="M830.69,40.37h23.02l21.56,59.32h-15.64l-4.13-9.9h-26.55l-4.16,9.9h-15.64L830.69,40.37z M852.13,27.38
				l-17.43,8.11l-2.44-6.33l15.08-14.69L852.13,27.38z M843.24,53.71h-2.08l-7.23,20.69h16.5L843.24,53.71z"/>
			<path class="st0" d="M883.06,55.66V40.28h51.83v15.38h-19.18v44.02H902.3V55.66H883.06z"/>
		</g>
	</g>
	<g>
		<path class="st1" d="M239.18,127.65h12.25c2.81,0,4.94,0.22,6.4,0.66c1.96,0.59,3.64,1.63,5.03,3.12
			c1.39,1.49,2.44,3.29,3.14,5.41c0.7,2.12,1.05,4.73,1.05,7.85c0,2.74-0.39,5.2-1.17,7.4c-0.78,2.2-1.92,4.03-3.44,5.5
			c-1.16,1.1-2.73,1.97-4.69,2.61c-1.48,0.47-3.47,0.7-5.96,0.7h-12.61v-14.51h-3.45v-4.22h3.45V127.65z M245.87,133.28v8.89h7.12
			v4.22h-7.12v8.91h5.03c2.22,0,3.82-0.18,4.81-0.54c1.3-0.45,2.29-1.28,2.97-2.49c0.95-1.71,1.43-4.32,1.43-7.82
			c0-2.49-0.2-4.42-0.6-5.77c-0.4-1.35-0.99-2.45-1.77-3.28c-0.78-0.83-1.8-1.41-3.05-1.75c-0.97-0.24-2.9-0.36-5.78-0.36H245.87z"
			/>
		<path class="st1" d="M276,144.48c0-3.39,0.51-6.23,1.52-8.53c0.76-1.69,1.79-3.21,3.1-4.56c1.31-1.35,2.74-2.34,4.3-2.99
			c2.07-0.88,4.46-1.32,7.17-1.32c4.9,0,8.82,1.52,11.76,4.56c2.94,3.04,4.41,7.26,4.41,12.68c0,5.37-1.46,9.57-4.38,12.6
			c-2.92,3.03-6.82,4.55-11.7,4.55c-4.94,0-8.87-1.51-11.79-4.52C277.46,153.92,276,149.77,276,144.48z M282.92,144.25
			c0,3.76,0.87,6.62,2.61,8.56c1.74,1.94,3.95,2.91,6.62,2.91c2.68,0,4.87-0.96,6.59-2.89c1.72-1.93,2.57-4.82,2.57-8.67
			c0-3.81-0.84-6.65-2.51-8.53s-3.89-2.81-6.66-2.81s-5,0.95-6.69,2.85C283.76,137.57,282.92,140.43,282.92,144.25z M292.03,124.84
			l-2.49,1.68h-4.47l4.94-2.95h4.04l4.94,2.95h-4.47L292.03,124.84z M288.68,169.99v-6.37h6.37v6.37H288.68z"/>
		<path class="st1" d="M325.61,160.9v-27.62h-9.86v-5.62h26.42v5.62h-9.84v27.62H325.61z"/>
		<path class="st1" d="M368.69,160.9v-33.24h10.77c4.08,0,6.74,0.17,7.98,0.5c1.9,0.5,3.5,1.58,4.78,3.25
			c1.29,1.67,1.93,3.83,1.93,6.47c0,2.04-0.37,3.76-1.11,5.15c-0.74,1.39-1.68,2.48-2.82,3.28c-1.14,0.79-2.3,1.32-3.48,1.58
			c-1.6,0.32-3.92,0.48-6.96,0.48h-4.38v12.54H368.69z M375.4,133.28v9.43h3.67c2.65,0,4.41-0.17,5.31-0.52s1.59-0.89,2.1-1.63
			c0.51-0.74,0.76-1.6,0.76-2.58c0-1.21-0.36-2.21-1.07-2.99c-0.71-0.79-1.61-1.28-2.7-1.47c-0.8-0.15-2.41-0.23-4.83-0.23H375.4z"
			/>
		<path class="st1" d="M404.33,160.9v-33.24h6.71v13.08h13.15v-13.08h6.71v33.24h-6.71v-14.54h-13.15v14.54H404.33z"/>
		<path class="st1" d="M472.48,160.9h-7.3l-2.9-7.55h-13.29l-2.74,7.55h-7.12l12.95-33.24h7.1L472.48,160.9z M460.12,147.74
			l-4.58-12.34l-4.49,12.34H460.12z M451.68,125.75l3.13-6.78h7.14l-6.24,6.78H451.68z"/>
		<path class="st1" d="M505.71,160.9v-27.62h-9.86v-5.62h26.42v5.62h-9.84v27.62H505.71z"/>
		<path class="st1" d="M531.26,160.9v-33.24h6.71v13.08h13.15v-13.08h6.71v33.24h-6.71v-14.54h-13.15v14.54H531.26z"/>
		<path class="st1" d="M568.06,144.48c0-3.39,0.51-6.23,1.52-8.53c0.76-1.69,1.79-3.21,3.1-4.56c1.31-1.35,2.74-2.34,4.3-2.99
			c2.07-0.88,4.46-1.32,7.17-1.32c4.9,0,8.82,1.52,11.76,4.56c2.94,3.04,4.41,7.26,4.41,12.68c0,5.37-1.46,9.57-4.38,12.6
			c-2.92,3.03-6.82,4.55-11.7,4.55c-4.94,0-8.87-1.51-11.79-4.52C569.52,153.92,568.06,149.77,568.06,144.48z M574.98,144.25
			c0,3.76,0.87,6.62,2.61,8.56c1.74,1.94,3.95,2.91,6.62,2.91c2.68,0,4.87-0.96,6.59-2.89c1.72-1.93,2.57-4.82,2.57-8.67
			c0-3.81-0.84-6.65-2.51-8.53s-3.89-2.81-6.66-2.81s-5,0.95-6.69,2.85C575.83,137.57,574.98,140.43,574.98,144.25z M576.25,125.75
			l4.76-6.69h5.9l4.69,6.69h-5.13l-2.63-3.38l-2.45,3.38H576.25z"/>
		<path class="st1" d="M610.26,160.9v-33.24h6.53l13.61,22.2v-22.2h6.24v33.24h-6.73l-13.4-21.68v21.68H610.26z"/>
		<path class="st1" d="M663.84,148.67v-5.6h14.47v13.24c-1.41,1.36-3.44,2.56-6.11,3.59c-2.67,1.04-5.37,1.55-8.11,1.55
			c-3.48,0-6.51-0.73-9.09-2.19c-2.58-1.46-4.53-3.54-5.83-6.26c-1.3-2.71-1.95-5.67-1.95-8.86c0-3.46,0.73-6.54,2.18-9.23
			c1.45-2.69,3.58-4.75,6.37-6.19c2.13-1.1,4.79-1.66,7.96-1.66c4.13,0,7.35,0.87,9.67,2.6s3.81,4.12,4.48,7.18l-6.67,1.25
			c-0.47-1.63-1.35-2.92-2.64-3.87s-2.91-1.42-4.84-1.42c-2.93,0-5.27,0.93-7,2.79c-1.73,1.86-2.6,4.62-2.6,8.28
			c0,3.95,0.88,6.91,2.63,8.88c1.75,1.97,4.05,2.96,6.89,2.96c1.41,0,2.82-0.28,4.23-0.83c1.41-0.55,2.63-1.22,3.64-2.01v-4.22
			H663.84z"/>
		<path class="st1" d="M714.18,160.9v-27.62h-9.86v-5.62h26.42v5.62h-9.84v27.62H714.18z"/>
		<path class="st1" d="M739.5,160.9v-33.24h6.71v33.24H739.5z"/>
		<path class="st1" d="M757.32,160.9v-33.24h6.53l13.61,22.2v-22.2h6.24v33.24h-6.73l-13.4-21.68v21.68H757.32z"/>
	</g>
	<polygon class="st2" points="102.49,16.75 85.74,0 68.99,16.75 78.4,16.75 78.4,172.85 93.09,172.85 93.09,16.75 	"/>
	<polygon class="st2" points="76.37,67.64 59.62,50.89 42.87,67.64 52.27,67.64 52.27,172.85 66.97,172.85 66.97,67.64 	"/>
	<polygon class="st2" points="50.79,96.12 34.04,79.37 17.29,96.12 26.7,96.12 26.7,172.85 41.39,172.85 41.39,96.12 	"/>
	<g>
		<g>
			<polygon class="st0" points="123.87,30.43 109.24,30.43 99.88,30.43 99.88,45.13 109.24,45.13 109.24,140.68 99.88,140.68 
				99.88,155.38 109.24,155.38 123.87,155.38 123.94,155.38 123.94,30.43 			"/>
			<polygon class="st0" points="0,30.43 0,45.13 0,140.68 0,155.38 14.7,155.38 21.74,155.38 21.74,140.68 14.7,140.68 14.7,45.13 
				73.74,45.13 73.74,30.43 14.7,30.43 			"/>
		</g>
	</g>
</g>
</svg>
